<?xml version="1.0" encoding="iso-8859-1"?>

<!DOCTYPE svg PUBLIC "-//W3C//DTD SVG 1.1//EN" "http://www.w3.org/Graphics/SVG/1.1/DTD/svg11.dtd">
<!-- Uploaded to: SVG Repo, www.svgrepo.com, Generator: SVG Repo Mixer Tools -->
<svg height="800px" width="800px" version="1.1" id="_x34_" xmlns="http://www.w3.org/2000/svg" xmlns:xlink="http://www.w3.org/1999/xlink" 
	 viewBox="0 0 512 512"  xml:space="preserve">
<g>
	<path style="fill:#E7C9C8;" d="M512,101.925c0-44.644-36.197-80.833-80.853-80.833c-15.722,0-30.355,4.561-42.771,12.331
		C358.389,3.098,313.303,0,253.072,0C194.346,0,150.05,3.006,120.069,31.267c-11.621-6.465-24.983-10.175-39.223-10.175
		C36.195,21.092,0,57.281,0,101.925c0,37.977,26.216,69.746,61.514,78.422c2.063,11.614,6.891,24.728,15.821,39.9
		c21.816,37.07,44.518,62.099,49.205,69.127v0.184c-2.865,7.102-4.693,12.594-4.693,15.061c0,10.904,2.051,27.875,21.223,30.177
		c-0.064,0.87-0.132,1.739-0.132,2.627c0,19.414,15.735,35.148,35.146,35.148h74.987h86.693c19.409,0,35.155-15.734,35.155-35.148
		c0-1.206-0.061-2.406-0.184-3.582c14.84-4.31,16.58-19.273,16.58-29.222c0-3.129-2.94-11.131-7.225-21.147
		c8.78-11.051,27.049-33.183,44.73-63.225c8.608-14.633,13.396-27.349,15.576-38.651C482.735,175.259,512,142.051,512,101.925z"/>
	<g>
		<g>
			<g>
				<path style="fill:#E8D1D2;" d="M178.085,302.274c-19.411,0-35.146,15.741-35.146,35.149c0,19.414,15.735,35.148,35.146,35.148
					h74.987v-70.297H178.085z"/>
				<path style="fill:#E7C9C8;" d="M339.764,302.274h-86.693v70.297h86.693c19.409,0,35.155-15.734,35.155-35.148
					C374.919,318.015,359.173,302.274,339.764,302.274z"/>
			</g>
			<g>
				<g>
					<path style="fill:#FADFDC;" d="M161.68,101.925c0,44.651-36.193,80.846-80.833,80.846C36.195,182.771,0,146.576,0,101.925
						c0-44.644,36.195-80.833,80.847-80.833C125.487,21.092,161.68,57.281,161.68,101.925z"/>
					<path style="fill:#EFCDCC;" d="M128.876,103.101c0,23.29-18.881,42.177-42.177,42.177c-23.296,0-42.177-18.887-42.177-42.177
						c0-23.289,18.881-42.177,42.177-42.177C109.994,60.924,128.876,79.812,128.876,103.101z"/>
				</g>
				<g>
					<path style="fill:#F2D7D6;" d="M350.319,101.925c0,44.651,36.183,80.846,80.828,80.846c44.656,0,80.853-36.195,80.853-80.846
						c0-44.644-36.197-80.833-80.853-80.833C386.503,21.092,350.319,57.281,350.319,101.925z"/>
					<path style="fill:#E4C3C3;" d="M383.123,103.101c0,23.29,18.882,42.177,42.171,42.177c23.302,0,42.183-18.887,42.183-42.177
						c0-23.289-18.881-42.177-42.183-42.177C402.005,60.924,383.123,79.812,383.123,103.101z"/>
				</g>
			</g>
			<polyline style="fill:#FADFDC;" points="149.974,226.1 86.699,168.714 166.366,51.569 253.072,10.549 253.072,100.738 
				253.072,291.738 126.541,291.738 126.541,226.1 138.25,228.445 			"/>
			<path style="fill:#604C3F;" d="M253.072,91.389c-112.477-23.437-131.224,35.148-124.196,77.325
				c5.198,31.206,33.977,44.516,33.977,44.516l-36.312,76.144c-4.686-7.029-27.389-32.057-49.205-69.127
				c-23.44-39.82-18.757-65.595-9.374-86.681c8.617-19.39,17.788-47.32,30.453-72.642C126.525,4.702,178.097,0,253.072,0V91.389z"/>
			<g>
				<polyline style="fill:#F2D7D6;" points="356.172,226.1 419.454,168.714 339.777,51.569 253.072,10.549 253.072,100.738 
					253.072,291.738 379.609,291.738 379.609,226.1 367.903,228.445 				"/>
				<path style="fill:#564236;" d="M253.072,91.389c112.48-23.437,131.227,35.148,124.199,77.325
					c-5.192,31.206-33.967,44.516-33.967,44.516l36.306,76.144c4.689-7.029,27.391-32.057,49.212-69.127
					c23.437-39.82,18.747-65.595,9.367-86.681c-8.62-19.39-17.791-47.32-30.453-72.642C379.621,4.702,328.058,0,253.072,0V91.389z"
					/>
			</g>
			<path style="fill:#FAD9D7;" d="M162.852,213.23c0,0-41.005,79.665-41.005,91.389c0,11.718,2.342,30.459,25.775,30.459
				s114.816,0,114.816,0v-138.25C241.354,196.828,182.75,185.116,162.852,213.23z"/>
			<path style="fill:#FAD9D7;" d="M350.319,213.23c0,0,40.996,79.665,40.996,91.389c0,11.718-2.34,30.459-25.776,30.459
				c-23.437,0-114.819,0-114.819,0v-138.25C271.818,196.828,330.409,185.116,350.319,213.23z"/>
		</g>
		<g>
			<path style="fill:#564236;" d="M192.13,143.968h-19.004l6.146,8.333c-0.796,1.769-1.249,3.704-1.249,5.755
				c0,7.788,6.306,14.106,14.106,14.106c7.775,0,14.093-6.318,14.093-14.106C206.223,150.28,199.905,143.968,192.13,143.968z"/>
			<path style="fill:#564236;" d="M338.871,143.968h-19.004c-7.775,0-14.093,6.312-14.093,14.087
				c0,7.788,6.318,14.106,14.093,14.106c7.8,0,14.106-6.318,14.106-14.106c0-2.051-0.453-3.985-1.249-5.755L338.871,143.968z"/>
		</g>
		<g>
			<path style="fill:#BAA089;" d="M236.223,244.852c-4.677,0-15.232-14.057-23.424-11.712c-8.204,2.351,2.338,16.408,12.882,16.408
				C236.223,249.548,236.223,244.852,236.223,244.852z"/>
			<path style="fill:#BAA089;" d="M275.773,244.852c4.678,0,15.233-14.057,23.424-11.712c8.204,2.351-2.339,16.408-12.882,16.408
				C275.773,249.548,275.773,244.852,275.773,244.852z"/>
		</g>
	</g>
</g>
</svg>